PathFileType	4	(X/Y/Z)	/Users/itak/Documents/Research/Walk-IL/dataset/trc/00131_00007.trc
DataRate	CameraRate	NumFrames	NumMarkers	Units	OrigDataRate	OrigDataStartFrame	OrigNumFrames
100.000000	100.000000	4	53	mm	100.000000	0	712
Frame#	Time	RPSI			LPSI			L3			STRN			T10			C7			CLAV			RBAK			LBAK			LSHO			LUPA			LAEL			LAOL			LWTS			LWPS			LFRA			LIFD			LHPS			LHTS			RSHO			RUPA			RAEL			RAOL			RWTS			RWPS			RFRA			RIFD			RHTS			RHPS			RBHD			LFHD			RFHD			LBHD			LHIP			RHIP			RASI			LASI			LKNE			LTHI			LANK			LTIP			LTOE			LMT1			LMT5			LHEE			RKNE			RTHI			RANK			RTIP			RTOE			RMT1			RMT5			RHEE			
		X1	Y1	Z1	X2	Y2	Z2	X3	Y3	Z3	X4	Y4	Z4	X5	Y5	Z5	X6	Y6	Z6	X7	Y7	Z7	X8	Y8	Z8	X9	Y9	Z9	X10	Y10	Z10	X11	Y11	Z11	X12	Y12	Z12	X13	Y13	Z13	X14	Y14	Z14	X15	Y15	Z15	X16	Y16	Z16	X17	Y17	Z17	X18	Y18	Z18	X19	Y19	Z19	X20	Y20	Z20	X21	Y21	Z21	X22	Y22	Z22	X23	Y23	Z23	X24	Y24	Z24	X25	Y25	Z25	X26	Y26	Z26	X27	Y27	Z27	X28	Y28	Z28	X29	Y29	Z29	X30	Y30	Z30	X31	Y31	Z31	X32	Y32	Z32	X33	Y33	Z33	X34	Y34	Z34	X35	Y35	Z35	X36	Y36	Z36	X37	Y37	Z37	X38	Y38	Z38	X39	Y39	Z39	X40	Y40	Z40	X41	Y41	Z41	X42	Y42	Z42	X43	Y43	Z43	X44	Y44	Z44	X45	Y45	Z45	X46	Y46	Z46	X47	Y47	Z47	X48	Y48	Z48	X49	Y49	Z49	X50	Y50	Z50	X51	Y51	Z51	X52	Y52	Z52	X53	Y53	Z53	

1	0	333.2777404785156	1129.675537109375	1119.639038085938	323.1166687011719	1130.705688476562	1253.599853515625	334.9723205566406	1162.8115234375	1190.082397460938	128.4454498291016	1368.412231445312	1174.6533203125	380.7781677246094	1310.84375	1197.52587890625	353.4768676757812	1602.941650390625	1212.544311523438	168.7117614746094	1502.18212890625	1183.623413085938	410.0125122070312	1418.148315429688	1127.698120117188	348.6319580078125	1582.432373046875	1313.579467773438	255.8696594238281	1571.514282226562	1372.456298828125	264.9248352050781	1440.541137695312	1443.491455078125	237.4335174560547	1220.750610351562	1460.163818359375	312.0397033691406	1206.498413085938	1415.459350585938	132.9400634765625	969.5537719726562	1389.203491210938	204.7979278564453	939.22216796875	1430.833984375	213.6206665039062	1104.067993164062	1457.818359375	103.6866760253906	789.8942260742188	1340.60205078125	173.1593322753906	864.7131958007812	1421.363037109375	110.4851303100586	880.0088500976562	1392.031616210938	316.8721923828125	1586.727172851562	1026.045043945312	340.6925964355469	1514.336303710938	963.6950073242188	352.3670349121094	1219.119506835938	944.0257568359375	346.2589416503906	1218.41650390625	1040.389770507812	196.5469665527344	984.6472778320312	934.7728271484375	274.0244445800781	962.2698364257812	916.5751953125	328.5558471679688	1146.592041015625	925.539306640625	150.7801361083984	796.1578979492188	943.2747802734375	157.4523468017578	881.6942749023438	918.8554077148438	229.0854797363281	866.697021484375	903.0253295898438	352.7167053222656	1765.768432617188	1163.180541992188	165.3954925537109	1859.283813476562	1234.101684570312	218.429443359375	1872.638916015625	1115.154174804688	306.3941650390625	1754.465942382812	1290.339599609375	222.0120391845703	1042.97412109375	1350.478881835938	212.4505462646484	1037.038696289062	990.9967651367188	130.7709503173828	1113.60791015625	1038.1064453125	117.5763931274414	1109.253784179688	1305.934326171875	204.9927673339844	541.0986328125	1311.01123046875	223.9487609863281	688.6555786132812	1343.078002929688	323.393798828125	42.60578918457031	1297.075317382812	306.998046875	295.1688232421875	1336.222290039062	93.74330902099609	41.57513809204102	1228.825073242188	176.8380126953125	45.37836074829102	1197.735717773438	196.7990875244141	40.73576354980469	1314.358154296875	394.9052124023438	43.23273086547852	1238.727294921875	215.8352966308594	544.4874267578125	1029.191284179688	192.5019226074219	824.6612548828125	997.8712768554688	323.7289428710938	34.3757209777832	1047.526123046875	244.6849060058594	411.9023132324219	1019.621276855469	95.54988861083984	49.0633544921875	1111.310913085938	157.9384307861328	39.29425430297852	1152.08251953125	189.4253997802734	41.28251647949219	1032.972290039062	383.5216674804688	34.95031356811523	1092.15771484375	
2	0.01	333.4670104980469	1129.744384765625	1119.726318359375	323.2864685058594	1130.7607421875	1253.69287109375	335.1946105957031	1162.875366210938	1190.156005859375	128.4551086425781	1368.374145507812	1174.765258789062	380.8295288085938	1311.00634765625	1197.630737304688	353.27099609375	1603.0791015625	1212.649780273438	168.5928039550781	1502.178344726562	1183.717651367188	409.9732971191406	1418.3173828125	1127.810424804688	348.4273681640625	1582.550659179688	1313.679321289062	255.634033203125	1571.590209960938	1372.548706054688	264.7730407714844	1440.612426757812	1443.611450195312	237.3430786132812	1220.771850585938	1460.263061523438	312.0417785644531	1206.611572265625	1415.606323242188	133.5859069824219	969.24658203125	1389.363403320312	205.3711395263672	939.46435546875	1431.47998046875	213.8183898925781	1104.072509765625	1457.963012695312	104.3973846435547	789.6171264648438	1340.913452148438	174.0376892089844	864.6087036132812	1421.80615234375	111.3496856689453	879.7042846679688	1392.314086914062	316.7347717285156	1586.812377929688	1026.149658203125	340.6007995605469	1514.408935546875	963.8065795898438	352.4229736328125	1219.216186523438	944.1940307617188	346.2557067871094	1218.486206054688	1040.556762695312	196.4671325683594	984.7338256835938	934.846923828125	273.9537658691406	962.3867797851562	916.6166381835938	328.5914916992188	1146.669677734375	925.6862182617188	151.0379333496094	796.1566162109375	943.4120483398438	157.4864959716797	881.6624755859375	918.9964599609375	229.1335296630859	866.8139038085938	903.0430908203125	352.48291015625	1765.776489257812	1162.962036132812	165.4150085449219	1859.402954101562	1234.314331054688	218.0577087402344	1872.641235351562	1115.194580078125	306.4424743652344	1754.558837890625	1290.23291015625	222.1496734619141	1042.85205078125	1350.508666992188	212.5519561767578	1037.053833007812	991.0093994140625	130.9395904541016	1113.583251953125	1038.1689453125	117.7279205322266	1109.228393554688	1305.993041992188	205.1298370361328	541.0972900390625	1311.061889648438	224.1379699707031	688.6660766601562	1343.141845703125	323.3831176757812	42.59605407714844	1297.083862304688	307.0632019042969	295.1414794921875	1336.256713867188	93.76192474365234	41.59157180786133	1228.827514648438	176.8400421142578	45.37815093994141	1197.731079101562	196.7992706298828	40.73047637939453	1314.351806640625	394.9066772460938	43.21513366699219	1238.739501953125	215.9652557373047	544.5120239257812	1029.203369140625	192.7540130615234	824.6675415039062	997.9226684570312	323.7399597167969	34.36433410644531	1047.523071289062	244.7449340820312	411.9059143066406	1019.643981933594	95.55104827880859	49.0618782043457	1111.314453125	157.9445953369141	39.28976821899414	1152.080078125	189.4280242919922	41.28641510009766	1032.975341796875	383.5226440429688	34.92377853393555	1092.144897460938	
3	0.02	333.7013854980469	1129.831176757812	1119.8359375	323.4979248046875	1130.8291015625	1253.808715820312	335.4810180664062	1162.956909179688	1190.251831054688	128.4717712402344	1368.317993164062	1174.901611328125	380.8974609375	1311.197875976562	1197.75537109375	353.0238037109375	1603.242309570312	1212.7705078125	168.4461364746094	1502.171875	1183.839111328125	409.9297485351562	1418.520385742188	1127.943725585938	348.1787414550781	1582.693237304688	1313.797607421875	255.3533172607422	1571.679321289062	1372.664794921875	264.6047668457031	1440.694091796875	1443.754516601562	237.2532348632812	1220.794799804688	1460.383544921875	312.0575866699219	1206.752075195312	1415.78271484375	134.3851318359375	968.8617553710938	1389.598999023438	206.0829620361328	939.6555786132812	1432.1923828125	214.0783538818359	1104.07666015625	1458.14794921875	105.2984008789062	789.2645263671875	1341.316040039062	175.1400909423828	864.474365234375	1422.37109375	112.4291839599609	879.3140869140625	1392.697875976562	316.5672912597656	1586.91259765625	1026.271362304688	340.4860229492188	1514.494750976562	963.9348754882812	352.4784545898438	1219.32958984375	944.3893432617188	346.25146484375	1218.56884765625	1040.74560546875	196.3919982910156	984.8213500976562	934.9551391601562	273.8899536132812	962.5205688476562	916.67431640625	328.6315307617188	1146.763549804688	925.8596801757812	151.4009399414062	796.1270751953125	943.5910034179688	157.5745391845703	881.5995483398438	919.1818237304688	229.2192535400391	866.9370727539062	903.0792846679688	352.1776733398438	1765.792724609375	1162.658447265625	165.4243011474609	1859.544799804688	1234.592407226562	217.5749053955078	1872.641967773438	1115.248413085938	306.5206604003906	1754.677612304688	1290.086181640625	222.3444976806641	1042.721923828125	1350.557739257812	212.7030487060547	1037.066284179688	991.0383911132812	131.1548156738281	1113.550903320312	1038.250732421875	117.9204406738281	1109.200439453125	1306.065551757812	205.2975158691406	541.0947875976562	1311.1240234375	224.3642120361328	688.6765747070312	1343.229736328125	323.3744506835938	42.58454132080078	1297.095825195312	307.13720703125	295.1055908203125	1336.30126953125	93.78600311279297	41.6096305847168	1228.82861328125	176.8438873291016	45.3777961730957	1197.724853515625	196.7974853515625	40.71775436401367	1314.340087890625	394.9103393554688	43.19208526611328	1238.756225585938	216.1230163574219	544.5410766601562	1029.215942382812	193.057373046875	824.66845703125	997.9799194335938	323.7529602050781	34.3489875793457	1047.5166015625	244.8104400634766	411.9049072265625	1019.667907714844	95.55331420898438	49.06161880493164	1111.318237304688	157.9533233642578	39.28524780273438	1152.077026367188	189.4323577880859	41.29233551025391	1032.979125976562	383.5269775390625	34.89257049560547	1092.132446289062	
4	0.03	333.9695129394531	1129.931884765625	1119.962646484375	323.740234375	1130.906616210938	1253.942016601562	335.8192138671875	1163.052734375	1190.365966796875	128.49755859375	1368.241821289062	1175.055786132812	380.9813842773438	1311.405883789062	1197.891845703125	352.7506408691406	1603.420654296875	1212.896362304688	168.2801208496094	1502.16162109375	1183.982299804688	409.8867492675781	1418.744995117188	1128.088500976562	347.9010620117188	1582.8515625	1313.925537109375	255.0480651855469	1571.775024414062	1372.798461914062	264.4373474121094	1440.779907226562	1443.911254882812	237.1798553466797	1220.8173828125	1460.518188476562	312.0935363769531	1206.91357421875	1415.976684570312	135.3025817871094	968.4170532226562	1389.916137695312	206.9029998779297	939.7447509765625	1432.90771484375	214.3967742919922	1104.079711914062	1458.367065429688	106.3565368652344	788.8521118164062	1341.799682617188	176.4206390380859	864.3148193359375	1423.038452148438	113.6761016845703	878.8550415039062	1393.181396484375	316.3775329589844	1587.02001953125	1026.400634765625	340.3520202636719	1514.5869140625	964.0693359375	352.5231628417969	1219.450439453125	944.5941772460938	346.2474975585938	1218.658081054688	1040.938598632812	196.3382415771484	984.8941040039062	935.0999145507812	273.8486633300781	962.6572875976562	916.7479248046875	328.6705017089844	1146.8662109375	926.04541015625	151.8668060302734	796.056884765625	943.809326171875	157.7326049804688	881.49658203125	919.4109497070312	229.3507690429688	867.048583984375	903.14013671875	351.8080749511719	1765.818237304688	1162.268676757812	165.4159393310547	1859.699584960938	1234.927856445312	216.9933166503906	1872.639038085938	1115.314086914062	306.6348876953125	1754.820190429688	1289.89990234375	222.5955657958984	1042.602661132812	1350.629638671875	212.9069671630859	1037.073120117188	991.087646484375	131.4095153808594	1113.510986328125	1038.350341796875	118.1490249633789	1109.171752929688	1306.148681640625	205.486083984375	541.0906982421875	1311.194213867188	224.6117095947266	688.6851196289062	1343.340698242188	323.3692016601562	42.57119369506836	1297.111938476562	307.2134094238281	295.0611877441406	1336.355102539062	93.81480407714844	41.62832260131836	1228.826904296875	176.8497467041016	45.377685546875	1197.717407226562	196.7924499511719	40.69496917724609	1314.321655273438	394.9161376953125	43.16408157348633	1238.777709960938	216.2987060546875	544.5732421875	1029.227294921875	193.3963928222656	824.6618041992188	998.0348510742188	323.7663879394531	34.32991409301758	1047.505249023438	244.8726043701172	411.8965759277344	1019.689208984375	95.55823516845703	49.06451416015625	1111.320678710938	157.9646453857422	39.28208160400391	1152.072998046875	189.4384307861328	41.30019760131836	1032.9833984375	383.535400390625	34.85782623291016	1092.121459960938	
